<svg width="16" height="16" viewBox="0 0 16 16" fill="none" xmlns="http://www.w3.org/2000/svg">
<path d="M13.976 2.66669H11.3147M13.976 2.66669C13.976 3.04003 12.982 3.73803 12.6453 4.00003M13.976 2.66669C13.976 2.29336 12.982 1.59536 12.6453 1.33336M2 2.66669H4.66M2 2.66669C2 2.29336 2.99467 1.59536 3.33067 1.33336M2 2.66669C2 3.04003 2.99467 3.73803 3.33067 4.00003M6.54333 14.6667V14.04C6.54343 13.6079 6.40356 13.1874 6.14467 12.8414L3.596 9.43536C3.38467 9.15269 3.22667 8.80936 3.324 8.46936C3.564 7.63003 4.512 6.88403 5.57267 8.19803L6.63933 9.33669V2.39603C6.70467 1.17603 8.75533 0.791359 8.96667 2.39603V6.35136C9.95533 6.22469 14.6107 6.91869 13.9333 9.86136L13.8373 10.2854C13.6993 10.8974 13.294 11.9867 12.8467 12.624C12.38 13.2874 12.598 14.3574 12.5447 14.668" stroke="#2D2C3A" stroke-width="1.5" stroke-linecap="round" stroke-linejoin="round"/>
</svg>
