<svg width="48" height="48" viewBox="0 0 48 48" fill="none" xmlns="http://www.w3.org/2000/svg">
<path d="M0 8C0 3.58172 3.58172 0 8 0H40C44.4183 0 48 3.58172 48 8V40C48 44.4183 44.4183 48 40 48H8C3.58172 48 0 44.4183 0 40V8Z" fill="black"/>
<path d="M19.0312 14.0057C19.6235 13.989 20.2743 14.014 20.8708 14.0174L23.9921 14.0087C23.9088 17.1706 24.0683 20.4762 23.9621 23.6612C23.9259 26.2715 23.3293 28.8929 21.3312 30.7348C17.8735 33.922 11.1246 33.7356 7.9242 30.2406C6.35042 28.5219 5.89737 25.2905 6.01859 23.0227C6.00798 20.9894 6.01142 18.9562 6.02898 16.923C6.03037 16.4933 5.94434 14.2259 6.09621 14.0392C6.57354 13.9871 7.59105 14.0187 8.13137 14.0198L11.6192 14.0188C11.6155 14.0586 11.6099 14.1131 11.6097 14.153C11.5977 16.0754 11.6002 17.9795 11.6089 19.904C11.6337 21.9722 11.4895 24.0677 11.8323 26.116C12.1261 27.8703 13.2213 28.7701 14.9686 28.7852C16.651 28.7997 17.8694 27.7021 18.1865 26.0589C18.5355 24.2499 18.4148 22.3514 18.411 20.5178L18.4302 14.0171C18.6409 14.0251 18.821 14.0155 19.0312 14.0057Z" fill="white"/>
<path d="M25.1484 14C25.8089 14.0415 26.8539 14.01 27.5396 14.0118L32.7098 14.0158C33.8053 14.0201 35.2263 14.0051 36.2984 14.2117C37.2655 14.3995 38.1916 14.7638 39.0325 15.2874C40.364 16.1071 41.4391 17.3969 41.797 18.9685C42.2983 21.1698 41.9116 23.6196 40.1821 25.1596C39.3087 25.9373 38.4017 26.2459 37.3004 26.513C38.8332 28.6492 40.334 30.8091 41.8023 32.9923L35.6253 32.9875C34.7902 31.497 33.8742 30.0485 32.9951 28.5847C32.7268 28.1199 32.428 27.6752 32.1821 27.1963C31.6129 27.2034 31.0293 27.1954 30.4589 27.1942C30.4093 27.5942 30.4705 28.7905 30.4626 29.2796C30.4425 30.5181 30.4247 31.7615 30.4162 33C28.7595 32.9398 26.5259 32.9774 24.8571 32.9961C24.9311 32.1611 24.868 30.6116 24.8633 29.7329C24.8468 27.7446 24.8681 25.7562 24.9271 23.7687L25.3076 23.7829C25.9083 23.8034 26.5084 23.7953 27.108 23.8104C29.064 23.8597 31.0218 23.9455 32.9782 23.8877C33.9036 23.8604 34.7469 23.8408 35.4589 23.1604C36.912 21.7718 36.5106 18.6368 34.3493 18.2637C33.0829 18.0506 31.7169 18.1549 30.4333 18.1659L24.8816 18.1714C24.9729 16.9791 24.8304 15.3289 24.9016 14.064C24.9707 13.9981 25.0306 14.0145 25.1484 14Z" fill="white"/>
</svg>
