<svg width="73" height="36" viewBox="0 0 73 36" fill="none" xmlns="http://www.w3.org/2000/svg">
<path d="M32.82 28.2692C32.4799 28.5375 31.4517 29.7559 31.08 30.1581C29.3439 32.0514 27.3522 33.9912 24.8658 34.7256C23.0177 35.2716 20.7398 34.2037 20.3711 32.2425C19.7228 28.7945 22.1908 24.6096 23.7908 21.7616C25.637 18.4751 34.6455 4.75423 39.0077 7.56073C39.5471 7.90867 39.9245 8.46599 40.0531 9.10427C40.4986 11.2094 38.5246 13.5496 37.3177 15.0526C35.3103 17.5527 33.2884 19.5801 30.8315 21.6228C29.4381 22.7812 26.848 24.3719 25.9343 25.8277C25.115 27.1329 23.7796 30.203 24.1392 31.7727C24.1924 32.0048 24.2894 32.2331 24.5039 32.3531C26.2441 33.3263 33.4409 26.1161 34.718 24.6272C35.411 23.819 35.9649 22.9091 36.5805 22.0413C37.2652 21.0817 38.0308 20.1853 38.8685 19.3622C40.539 17.732 43.2489 16.0592 45.6151 17.2711C46.3248 17.6346 46.9628 18.5482 47.157 19.3302C47.9202 22.4045 45.5812 25.1547 44.252 27.6544C45.247 27.4285 45.8628 26.8744 46.654 26.3177C48.3325 25.1367 49.1254 24.5459 50.007 22.6104C50.6564 21.1847 51.8488 18.9808 53.1106 18.0497C55.1946 16.5117 56.618 17.4224 57.9711 19.2531C57.3262 19.3116 56.3916 19.6774 55.971 20.1854C53.7628 22.8529 52.0123 26.1099 50.7215 29.3392C50.5802 29.6926 50.1518 30.7722 50.2911 31.118L50.3644 31.1419C51.3244 30.6927 55.941 24.1448 56.906 22.9924C57.2709 22.5566 58.122 21.6077 58.5289 21.1243C59.1345 20.356 59.5792 19.2417 60.37 18.6446C62.2837 17.1996 63.6241 18.0043 64.9204 19.6732C64.7668 19.7194 64.2809 19.8761 64.1493 19.9678C61.9173 21.5222 60.5691 25.4507 59.7159 27.9908C59.462 28.9938 58.9238 30.2922 59.3041 31.3032C59.4821 31.6398 59.9221 31.4234 60.0966 31.2575C61.9551 29.4886 63.6956 27.0162 65.1087 24.8887C67.0309 21.8954 69.2765 18.6273 69.8294 15.0116C70.2733 12.1069 69.6168 10.117 66.5652 9.6562C68.7075 8.90565 71.3238 8.48388 72.4886 10.9882C73.3113 12.7568 73.0361 14.8051 72.4037 16.5785C71.0272 20.4411 68.7834 23.9025 66.4161 27.1959C64.7052 29.5751 60.6369 35.976 57.1803 34.6907C56.5381 34.4445 56.0163 33.9502 55.7276 33.3143C54.7091 31.0589 56.6069 26.6246 57.4299 24.3409C56.6503 25.5215 55.7701 26.7759 54.8284 28.0488C53.3114 30.099 51.537 33.4506 49.3911 34.7922C48.8368 35.0481 47.9756 34.957 47.4666 34.7168C44.5147 33.324 47.0039 28.8725 47.9204 26.7397C47.2569 27.0976 46.606 27.6923 45.9883 28.1426C45.1101 28.7828 44.3064 28.8627 43.3059 29.058C41.794 31.1484 40.0219 32.9569 37.8121 34.2807C36.9475 34.7988 35.9136 35.0253 34.9309 34.7318C34.149 34.4921 33.4939 33.9416 33.1129 33.2037C32.2632 31.5655 32.9085 29.5633 33.4032 27.9265C33.4823 27.7296 33.5582 27.5313 33.6307 27.3317C33.4225 27.5684 32.9912 28.0349 32.82 28.2692ZM44.1883 24.4849C43.8822 25.0762 43.4882 25.6712 43.1302 26.2358C43.5889 25.7735 44.0434 25.2149 44.3793 24.6521C44.9165 23.805 47.2832 19.5783 44.9781 18.9304C44.5032 18.7969 43.3128 19.757 42.9089 20.1664C40.3167 22.7921 38.2621 25.9226 36.8034 29.3416C36.4546 30.1592 35.3853 33.561 37.5497 32.1975C38.9486 31.3164 40.4933 29.5154 41.5392 28.2208C40.7795 27.4035 40.5023 26.6211 40.8157 25.5029C41.1597 24.2454 42.4902 22.8567 43.8707 23.2446C44.467 23.4122 44.3395 24.0534 44.1883 24.4849ZM28.1819 22.0785C29.1615 21.355 30.0285 20.5629 30.9346 19.7513C33.3213 17.6136 35.6416 15.3689 37.4172 12.6583C37.6766 12.2623 38.5494 10.9858 38.3652 10.5433C38.2878 10.4733 38.2661 10.4346 38.1661 10.4261C34.9302 12.1301 31.8143 16.6436 29.6129 19.6179C29.2419 20.119 28.2144 21.5561 28.0651 22.0962C28.1307 22.0939 28.1374 22.1054 28.1819 22.0785Z" fill="#1E8DA1"/>
<path d="M44.1883 24.4849L44.3793 24.6521C44.0434 25.2149 43.5889 25.7735 43.1302 26.2358C43.4882 25.6712 43.8822 25.0762 44.1883 24.4849Z" fill="#1E8DA1"/>
<path d="M22.6049 7.87881C24.5914 7.75797 25.4843 8.57204 26.6331 10.0792C26.0758 10.1818 25.5855 10.2612 25.06 10.5108C23.1927 11.3978 21.0005 13.6662 19.7603 15.333C24.0897 15.3075 24.7695 17.7367 23.323 21.4487C23.0548 20.6384 22.8701 19.9535 22.0664 19.5448C20.5271 18.7623 17.9436 19.2799 16.3917 19.7683C13.6985 23.2897 9.74168 29.1672 9.48478 33.8332C9.46629 34.1684 9.59608 34.6518 9.85664 34.8761C10.2236 35.1921 10.5463 35.1702 10.9931 35.1595C9.39626 35.9902 8.2982 36.4635 6.67482 35.3275C3.60743 32.4212 8.23692 24.5043 10.0631 21.6404C8.09034 22.289 5.80114 23.5194 3.68693 22.8956C1.39666 22.2199 0.918682 20.0519 1.54904 17.9527C2.62183 21.0321 6.54476 19.0254 8.59529 18.3066C10.1538 17.7754 11.7215 17.2724 13.2976 16.7979C14.2353 15.5432 15.2007 14.3102 16.1929 13.0999C17.9713 10.9222 19.8391 8.65474 22.6049 7.87881Z" fill="#1E8DA1"/>
<path d="M35.2605 0.0149118C37.1083 -0.0456942 38.8056 0.0562587 40.5578 0.737985C42.5481 1.51245 44.2794 3.23086 44.1309 5.56137C44.0698 6.52248 43.7767 7.27915 43.4314 8.15939C43.0282 6.87663 42.3946 5.93431 41.2174 5.27897C36.0715 2.41433 24.6225 6.37334 19.322 8.05863C15.9245 9.16889 12.5158 10.2432 9.09649 11.2812C6.17416 12.1581 1.04267 12.051 0.171129 8.32396C-0.208409 6.70074 0.0543826 5.62562 0.850082 4.23378C1.38755 7.0066 3.33597 7.76774 5.9019 7.37927C8.54839 6.97858 11.0837 6.09112 13.6483 5.30845C17.9888 3.98397 22.2744 2.40876 26.7119 1.42628C29.5447 0.799048 32.3611 0.199377 35.2605 0.0149118Z" fill="#1E8DA1"/>
<path d="M33.6307 27.3317C33.5582 27.5313 33.4823 27.7296 33.4032 27.9265C33.2635 28.1094 33.0731 28.4116 32.82 28.2692C32.9912 28.0349 33.4225 27.5684 33.6307 27.3317Z" fill="#1E8DA1"/>
</svg>
