<svg width="148" height="41" viewBox="0 0 148 41" fill="none" xmlns="http://www.w3.org/2000/svg">
<path d="M141.851 32.5703H135.031V12.9227H128.883V7.33944H148V12.9227H141.851V32.5703Z" fill="#6E6FD9"/>
<path d="M117.359 7.33944C120.563 7.33944 122.954 8.0344 124.532 9.42434C126.134 10.8143 126.935 12.7932 126.935 15.361C126.935 16.5154 126.77 17.6226 126.44 18.6827C126.111 19.7193 125.569 20.6616 124.815 21.5097C124.085 22.3342 123.107 22.9939 121.882 23.4886C120.657 23.9597 119.149 24.1953 117.359 24.1953H115.451V32.5703H108.63V7.33944H117.359ZM117.217 12.8521H115.451V18.6474H116.793C117.382 18.6474 117.924 18.5531 118.419 18.3647C118.937 18.1527 119.349 17.8228 119.656 17.3752C119.962 16.9041 120.115 16.2916 120.115 15.5377C120.115 14.7367 119.879 14.0889 119.408 13.5941C118.937 13.0994 118.207 12.8521 117.217 12.8521Z" fill="#6E6FD9"/>
<path d="M98.6767 25.0434C97.9228 26.7867 97.1101 28.2473 96.2384 29.4253C95.3903 30.5796 94.3066 31.4513 92.9874 32.0402C91.6681 32.6292 89.9484 32.9236 87.8281 32.9236C87.2392 32.9236 86.5324 32.8765 85.7079 32.7823C84.9069 32.7116 84.1413 32.5821 83.411 32.3936V26.7043C84.047 26.9399 84.742 27.1048 85.4959 27.199C86.2497 27.2932 86.9211 27.3404 87.5101 27.3404C88.1462 27.3404 88.6644 27.2461 89.0649 27.0577C89.4654 26.8456 89.7717 26.5865 89.9837 26.2802C90.2193 25.974 90.396 25.6795 90.5138 25.3968L82.2802 7.33944H89.6303L92.74 15.043C92.9049 15.4199 93.0934 15.9028 93.3054 16.4918C93.541 17.0572 93.753 17.6344 93.9415 18.2233C94.1535 18.7887 94.3066 19.2952 94.4009 19.7428H94.6129C94.7542 19.1774 94.9427 18.5414 95.1783 17.8346C95.4139 17.1043 95.6494 16.4211 95.885 15.7851C96.1442 15.1254 96.3209 14.6543 96.4151 14.3716L98.9947 7.33944H106.345L98.6767 25.0434Z" fill="#6E6FD9"/>
<path d="M81.9877 32.5703H74.2841L66.7926 19.7782V32.5703H59.9372V7.33944H66.7926V19.5661L74.0014 7.33944H81.4929L73.7187 19.3895L81.9877 32.5703Z" fill="#6E6FD9"/>
<path d="M41.7324 19.0632C42.3686 18.4299 43.0361 18.7682 42.6841 19.594C40.9248 23.7298 36.3154 26.6503 32.1292 27.7871C29.9914 28.3676 27.9913 28.5632 25.893 29.4476C21.3102 31.3791 18.6355 34.1792 16.6543 38.4775C16.4598 38.8994 16.0078 39.1487 15.554 39.0495C13.1517 38.5241 11.1822 37.6125 9.0033 36.3732C8.12784 35.8455 7.5042 35.4066 6.80589 34.8459C6.44137 34.5531 6.3395 34.0401 6.58236 33.6406C7.05366 32.8654 7.61382 32.1211 8.18442 31.4382C12.3729 26.4724 18.4289 23.4728 24.907 23.1554C28.5996 22.9735 32.045 23.5578 35.6969 22.5375C38.3587 21.7938 40.0729 20.7154 41.7324 19.0632Z" fill="#6E6FD9"/>
<path d="M28.1324 2.31451C28.309 1.9065 28.7249 1.65465 29.1602 1.7446C29.6353 1.84273 30.1605 1.97344 30.4715 2.05746C33.3264 2.82525 35.985 4.1871 38.2749 6.05059C38.68 6.38024 38.7362 6.97276 38.4105 7.38109C33.269 13.829 26.9412 17.7416 18.34 17.6514C14.3455 17.6095 11.0782 17.3611 7.28046 18.9269C5.5282 19.6091 3.87018 20.9089 2.54668 22.3669C2.28755 22.6524 1.80647 22.4005 1.94811 22.0419C3.8914 17.2059 8.65501 14.1472 13.511 12.8523C15.4774 12.3279 17.3314 12.1648 19.2274 11.3233C23.627 9.37063 26.2926 6.56541 28.1324 2.31451Z" fill="#6E6FD9"/>
<path d="M23.5811 1.25356C23.9679 1.23228 24.6457 1.25222 25.2676 1.29797C25.8716 1.34239 26.2232 1.94272 25.9585 2.48744C24.323 5.853 20.7366 9.08801 17.3008 9.90206C11.4673 11.2843 7.05419 12.212 2.76939 16.9951C2.39285 17.3729 1.82354 17.0831 2.00864 16.5829C3.0093 13.8784 4.67602 11.0755 6.42871 9.10945C11.1459 3.81796 16.7178 1.68765 23.5811 1.25356Z" fill="#6E6FD9"/>
<path d="M42.378 23.7161C42.8888 23.122 43.3531 23.3127 43.0949 24.0525C43.0426 24.2022 42.9986 24.3233 42.9727 24.3939C41.764 27.7608 39.7602 30.7841 37.1326 33.2053C32.9166 37.0481 27.4933 39.2916 21.8018 39.5475C20.842 39.5991 19.9481 39.5707 19.0082 39.5318C18.713 39.5196 18.4758 39.3422 18.5664 39.0609C18.7954 38.3496 19.5963 37.1075 19.7819 36.8298C21.7839 33.87 24.7747 31.7249 28.2149 30.7816C29.3696 30.4532 30.762 30.2155 31.9512 29.9288C33.6451 29.5105 35.2866 28.9003 36.8427 28.1103C39.1453 26.9413 40.8176 25.5308 42.378 23.7161Z" fill="#6E6FD9"/>
<path d="M0.0150745 1.05743C0.0174964 0.492249 0.488167 0.0422574 1.05323 0.0542522C2.7878 0.0910727 4.63182 0.0642867 6.32338 0.0655823C6.81009 0.0669704 7.2968 0.0679875 7.78351 0.0686335C8.99067 0.0702358 9.76705 3.55453 8.79717 4.27325C8.28823 4.65039 7.80005 5.04184 7.33714 5.44399C5.05257 7.36995 3.4574 9.41201 2.13912 11.7299C1.60178 12.6747 0.0067803 12.331 0.00440349 11.2441C-0.00302183 7.84851 0.000524603 4.45295 0.0150745 1.05743Z" fill="#6E6FD9"/>
<path d="M43.7482 27.6291C44.1549 26.7937 44.9516 26.9161 44.9528 27.8452C44.9557 30.1249 44.8728 33.1172 44.8724 34.0145L44.8853 38.2877C44.8873 38.7866 44.8996 39.3689 44.8938 39.9252C44.8882 40.4622 44.4322 40.8685 43.8951 40.8623C43.4188 40.8568 42.9412 40.859 42.4693 40.8607C37.4199 40.8796 32.3582 40.8121 27.3104 40.882C27.2461 40.8747 27.2354 40.8122 27.2964 40.7907C27.7195 40.641 28.7694 40.3472 28.9982 40.2707C29.6245 40.0591 30.2424 39.8252 30.8513 39.5695C36.188 37.3317 40.5153 33.5797 43.3111 28.4755C43.4687 28.1878 43.6129 27.9071 43.7482 27.6291Z" fill="#6E6FD9"/>
<path d="M0.0132123 31.6808C0.0203914 31.0263 0.678803 30.8125 1.06117 31.3438C1.79335 32.361 2.47926 33.383 3.32531 34.3176C5.71045 36.9525 8.65701 38.7659 11.9367 40.0521C12.5904 40.3084 14.0214 40.6404 14.5467 40.8941C14.5569 40.8991 14.5532 40.9145 14.5419 40.9143C10.0834 40.8401 5.50216 40.8962 1.01362 40.8834C0.463968 40.8819 0.020075 40.4354 0.0187663 39.8857C0.012324 37.1801 -0.0165286 34.3924 0.0132123 31.6808Z" fill="#6E6FD9"/>
<path d="M36.9991 2.7065C36.0076 2.1065 36.4103 0.00657137 37.5692 0.0160936C38.6403 0.0248944 39.7101 0.0256604 40.7754 0.00681323C41.7748 -0.0108819 42.8009 0.0162207 43.8128 0.000134515C44.381 -0.00889942 44.8611 0.43821 44.8664 1.00648C44.8972 4.31481 44.8583 7.69868 44.8568 10.9982C44.8568 11.0214 44.8385 11.0404 44.8153 11.0413C44.8023 11.0418 44.7897 11.0364 44.7813 11.0264C44.6195 10.8362 44.5273 10.6277 44.402 10.4102C42.4474 7.01245 39.9919 4.51738 36.9991 2.7065Z" fill="#6E6FD9"/>
</svg>
