<svg width="124" height="44" viewBox="0 0 124 44" fill="none" xmlns="http://www.w3.org/2000/svg">
<path d="M17.7797 0.0142454C18.4534 -0.0632825 19.8847 0.185363 20.4435 0.52387C21.2542 1.01493 21.8432 1.07002 22.7184 1.38603C24.4158 2.00307 25.9552 2.98335 27.2269 4.25714C29.8934 6.94188 30.6682 9.90394 30.6495 13.5464C30.4763 13.7891 30.2808 14.0156 30.0654 14.2225C27.6057 16.624 21.8726 17.3163 18.5528 17.2861C14.7072 17.3041 9.83383 16.8718 6.58987 14.5519C6.14424 14.2136 5.53794 13.6478 5.52728 13.0499C5.47497 10.1195 6.50269 7.20428 8.35665 4.98511C9.67754 3.41328 11.3872 2.20807 13.3187 1.48741C13.7862 1.31426 14.6635 1.1344 15.0427 0.951697C16.095 0.44458 16.5495 0.127691 17.7797 0.0142454ZM12.4303 15.4744C12.9703 15.6095 13.6124 15.6468 14.1466 15.7782C13.7467 13.1097 14.2617 4.17778 17.826 3.65318C17.8949 3.64315 17.9639 3.63454 18.0331 3.62729C21.6321 3.68883 22.3718 11.2147 22.2318 13.8053C22.196 14.4664 22.1389 15.1486 22.1229 15.8072C22.6829 15.6944 23.2802 15.6062 23.847 15.507C23.8427 15.0855 23.8543 14.6731 23.86 14.2526C23.9065 10.8048 23.6855 7.13624 21.6961 4.17839C20.9125 3.01344 19.7394 2.09862 18.285 2.01445C12.7846 2.18421 12.2725 10.9558 12.4035 14.9327C12.4095 15.1134 12.4184 15.294 12.4303 15.4744ZM22.6186 2.69479C25.2178 7.01595 25.2608 10.3273 25.2448 15.2246C26.4263 14.8806 27.1521 14.6371 28.2463 14.0658C28.6588 13.8143 29.1186 13.5461 29.4518 13.1962C29.4059 12.7765 29.4004 12.3469 29.3704 11.9252C29.0658 7.63116 26.6101 4.31847 22.6186 2.69479ZM13.655 2.68408C12.9164 2.99894 12.1311 3.34842 11.4629 3.78804C9.72369 4.93219 8.33587 6.66803 7.5847 8.59579C7.04247 9.98736 6.6983 11.5009 6.79641 12.9939C7.23609 13.5677 7.4414 13.6226 8.0306 14.0125C8.80973 14.4176 9.59502 14.762 10.4388 15.015C10.6286 15.0718 10.8384 15.1329 11.0243 15.1993C10.9536 11.1313 11.1806 6.69757 13.4324 3.14457C13.4846 3.0623 13.7107 2.75788 13.655 2.68408Z" fill="#E56E24"/>
<path d="M31.2303 12.4134C31.8657 12.6505 32.7115 13.1154 33.3287 13.4184C33.7574 13.6287 35.2709 14.2923 35.4955 14.6062C35.5242 14.7452 35.5573 14.9172 35.4995 15.0528C35.4029 15.2792 28.335 18.6264 27.605 18.9412L27.0916 18.7084C26.3528 18.9853 25.7774 19.1734 25.0069 19.3458C25.0998 19.3981 25.8111 19.7483 25.8172 19.754C25.7169 19.8845 25.2479 20.0646 25.0672 20.1409C23.0624 20.9872 21.1627 22.0537 19.185 22.9574C18.8515 23.1098 18.4625 23.3056 18.1159 23.4191C17.9156 23.3534 17.7018 23.2507 17.5087 23.1637C16.205 22.5763 14.9311 21.9276 13.6446 21.3058C12.9794 20.9851 12.3116 20.6697 11.6413 20.3596C11.2335 20.1693 10.6886 19.9314 10.3132 19.7044C10.569 19.5941 10.841 19.4887 11.1002 19.3836C10.4937 19.149 9.82856 18.9313 9.20942 18.6998C9.0147 18.7687 8.79763 18.8772 8.60722 18.9661C7.61294 18.4362 6.66145 17.9966 5.63892 17.5188C4.98655 17.2139 0.923936 15.3083 0.74228 15.0059C0.675279 14.8942 0.717666 14.7614 0.751577 14.648C0.974733 14.3792 4.29506 12.7767 4.81501 12.5363C4.18444 14.8053 5.01191 15.7416 7.04978 16.7851C8.0373 17.2908 9.12095 17.6655 10.1932 17.9697C15.5826 19.4986 21.5962 19.3455 26.9459 17.7391C28.4212 17.2867 30.679 16.2372 31.3621 14.8404C31.8484 13.8462 31.5491 13.3644 31.2303 12.4134Z" fill="#4E9EEE"/>
<path d="M9.48706 31.5564C10.0503 31.7648 11.0194 32.2638 11.5733 32.5315L15.2378 34.321C15.9217 34.6569 16.6992 35.0626 17.3897 35.361L17.3833 40.9824C17.3824 41.811 17.4142 42.6967 17.3616 43.522C17.3491 43.717 17.3059 43.8285 17.1814 43.9716C17.0347 44.0067 16.9668 44.0188 16.8191 43.9515C16.1368 43.6405 15.448 43.2666 14.7727 42.9351C13.0071 42.0707 11.2467 41.1958 9.49171 40.3104C9.57102 39.0401 9.49233 37.4014 9.48905 36.1112C9.48522 34.5893 9.52719 33.0728 9.48706 31.5564Z" fill="#4E9EEE"/>
<path d="M26.6671 31.5821C26.8227 31.8283 26.7536 39.3185 26.7347 40.2937C26.4586 40.4509 26.165 40.5978 25.8812 40.7417C23.853 41.7697 21.8261 42.8006 19.8003 43.8328C19.549 43.9608 19.3399 44.0252 19.0666 43.9247C18.8031 43.5389 18.9029 42.8664 18.9025 42.3933L18.8904 37.1717C18.8898 36.6013 18.8736 35.8994 18.9148 35.3399L26.6671 31.5821Z" fill="#4E9EEE"/>
<path d="M9.48638 21.1264C9.82528 21.2278 10.3179 21.4848 10.6438 21.6466C11.2452 21.9493 11.8489 22.2478 12.4545 22.5421L15.5737 24.0143C16.0872 24.2564 16.8821 24.6075 17.3512 24.8877C17.3932 25.4208 17.3761 26.0919 17.3768 26.6369L17.3801 29.52L17.3862 32.1103C17.3875 32.5321 17.4069 33.1673 17.3746 33.5699C16.8109 33.3462 15.7338 32.7756 15.1501 32.4957L9.50039 29.743C9.45855 26.871 9.45384 23.9986 9.48638 21.1264Z" fill="#4E9EEE"/>
<path d="M26.6555 21.1399C26.6885 21.1434 26.6666 21.1382 26.7108 21.1781C26.741 21.5451 26.7307 21.9893 26.7338 22.364L26.7462 24.4702C26.7506 26.2005 26.7771 28.0524 26.7276 29.7757C24.1623 31.0689 21.5764 32.3218 18.9711 33.5338L18.9411 33.5344C18.8794 33.4524 18.8863 33.4159 18.8859 33.2915C18.8829 32.3186 18.8861 31.3397 18.8867 30.3671L18.8788 24.9116C19.6718 24.4609 20.6477 24.0292 21.4721 23.6212C23.1815 22.7753 24.9593 22.0049 26.6555 21.1399Z" fill="#4E9EEE"/>
<path d="M0 26.9298C0.272108 26.998 1.17184 27.4479 1.47964 27.5953C2.63131 28.1509 3.77991 28.7127 4.92549 29.2805C5.5002 29.5649 6.0771 29.8447 6.65611 30.1203C7.00097 30.2842 7.49855 30.5046 7.81879 30.6944C7.80621 31.0792 7.80635 31.4947 7.8123 31.8807C7.85127 34.4068 7.7602 36.9619 7.8216 39.485C7.19404 39.2096 6.18437 38.6413 5.51169 38.3089L2.78603 36.9703C1.97846 36.578 0.909921 36.141 0.216182 35.5933C0.0758212 35.4825 0.0383553 35.2393 0.030698 35.0603C-0.00553752 34.2117 0.0117597 33.3147 0.0118281 32.4635C0.0189384 30.6189 0.0149728 28.7743 0 26.9298Z" fill="#4E9EEE"/>
<path d="M36.1793 26.9692L36.2256 26.974C36.3009 27.0816 36.2596 27.5584 36.2611 27.7137C36.2839 30.0579 36.2643 32.4027 36.2714 34.7468C36.272 34.9827 36.2178 35.2716 36.1691 35.5031C35.7496 35.943 34.8682 36.2527 34.327 36.5439C33.334 37.0793 32.3136 37.5517 31.3011 38.0469C30.3837 38.4956 29.4066 38.9138 28.5115 39.3999L28.4617 39.3882C28.3478 39.1946 28.4172 31.6017 28.4132 30.7925C29.258 30.3321 30.3507 29.8276 31.2264 29.3974L36.1793 26.9692Z" fill="#4E9EEE"/>
<path d="M36.2152 16.5337L36.2594 16.5558C36.293 16.7132 36.2556 18.6238 36.2552 18.9002L36.288 25.1037C35.6444 25.486 34.8243 25.8203 34.1471 26.1727C32.3086 27.1292 30.3029 28.0025 28.4855 28.9823L28.4105 28.9622C28.4273 28.6744 28.3986 28.195 28.3943 27.8864C28.3869 27.2337 28.3839 26.5808 28.3852 25.9281C28.3852 24.1092 28.4284 22.154 28.3863 20.3461C28.7208 20.1714 29.2189 19.9655 29.5779 19.7936C30.3131 19.4376 31.0454 19.076 31.775 18.7088C33.1957 18.0106 34.7894 17.1771 36.2152 16.5337Z" fill="#4E9EEE"/>
<path d="M0.0129214 16.5806C0.697157 16.8906 1.36703 17.2381 2.04327 17.565L5.69485 19.3333C6.07854 19.5234 7.54341 20.2084 7.80013 20.41C7.87732 20.5867 7.81558 22.4381 7.81463 22.7627L7.82228 28.8649C7.63605 28.8579 0.797795 25.526 0.00717843 25.1446L0.0129214 16.5806Z" fill="#4E9EEE"/>
<path d="M122.168 17.0691C122.296 17.0691 122.407 17.1422 122.5 17.2884C122.593 17.4345 122.639 17.6081 122.639 17.809V30.3598H123.529C123.657 30.3598 123.767 30.4329 123.86 30.579C123.953 30.7252 124 30.8987 124 31.0997L123.86 36.0534C123.86 36.2543 123.814 36.4279 123.721 36.574C123.628 36.7202 123.517 36.7933 123.389 36.7933H120.563C120.435 36.7933 120.325 36.7202 120.232 36.574C120.139 36.4279 120.092 36.2543 120.092 36.0534V33.3952H114.143V36.0534C114.143 36.2543 114.096 36.4279 114.003 36.574C113.91 36.7202 113.8 36.7933 113.672 36.7933H110.863C110.735 36.7933 110.625 36.7202 110.532 36.574C110.439 36.4462 110.392 36.2726 110.392 36.0534L110.532 31.0997C110.532 30.8987 110.578 30.7252 110.671 30.579C110.764 30.4329 110.875 30.3598 111.003 30.3598H111.282C111.666 30.3598 111.962 29.8391 112.171 28.7978C112.381 27.7565 112.485 25.8474 112.485 23.0705V17.809C112.485 17.6081 112.532 17.4345 112.625 17.2884C112.718 17.1422 112.829 17.0691 112.957 17.0691H122.168ZM116.673 23.6185C116.673 25.1166 116.62 26.4046 116.516 27.4824C116.411 28.542 116.236 29.5011 115.992 30.3598H118.452V22.6868H116.673V23.6185Z" fill="#4E9EEE"/>
<path d="M108.88 28.6023C108.88 31.3965 108.258 33.4603 107.014 34.7935C105.783 36.1267 104.137 36.7933 102.076 36.7933C100.015 36.7933 98.3631 36.1267 97.1193 34.7935C95.8878 33.4603 95.272 31.3783 95.272 28.5475V25.3149C95.272 23.4521 95.5647 21.9089 96.1499 20.6852C96.7474 19.4433 97.5583 18.5302 98.5826 17.9458C99.6068 17.3613 100.771 17.0691 102.076 17.0691C103.381 17.0691 104.539 17.3613 105.551 17.9458C106.575 18.5302 107.386 19.4342 107.984 20.6578C108.581 21.8815 108.88 23.4156 108.88 25.2601V28.6023ZM100.21 29.1228C100.21 29.8716 100.375 30.4468 100.704 30.8486C101.046 31.2504 101.503 31.4513 102.076 31.4513C102.649 31.4513 103.1 31.2504 103.429 30.8486C103.771 30.4286 103.942 29.8442 103.942 29.0954V24.767C103.942 24.0182 103.771 23.443 103.429 23.0412C103.1 22.6211 102.649 22.4111 102.076 22.4111C101.503 22.4111 101.046 22.612 100.704 23.0138C100.375 23.4156 100.21 23.9908 100.21 24.7396V29.1228Z" fill="#4E9EEE"/>
<path d="M122.472 7.21032C122.591 7.21032 122.694 7.61186 122.781 8.41494C122.868 9.21802 122.911 10.1717 122.911 11.2759V13.6074C122.911 14.7116 122.868 14.6896 122.781 15.1119C122.694 15.5342 122.591 15.476 122.472 15.476H91.8743L91.9149 35.2916C91.9149 35.6254 91.8716 35.9137 91.7849 36.1564C91.6981 36.3992 91.5952 36.5206 91.476 36.5206H80.892C80.7727 36.5206 80.6698 36.3992 80.5831 36.1564C80.4963 35.9137 80.453 35.6254 80.453 35.2916L80.4251 15.476L48.8229 15.4751C48.7037 15.4751 48.6007 15.5326 48.514 15.1103C48.4273 14.688 48.384 14.7086 48.384 13.6043V11.2728C48.384 10.1686 48.4273 9.21496 48.514 8.41188C48.6007 7.60881 48.7037 7.20727 48.8229 7.20727L122.472 7.21032Z" fill="#4E9EEE"/>
<path d="M76.6519 31.2987C76.7812 31.2987 76.8929 31.3738 76.987 31.5241C77.081 31.6744 77.128 31.8528 77.128 32.0595V36.0325C77.128 36.2391 77.081 36.4176 76.987 36.5678C76.8929 36.7181 76.7812 36.7933 76.6519 36.7933H65.5081C65.3788 36.7933 65.2671 36.7181 65.1731 36.5678C65.079 36.4176 65.032 36.2391 65.032 36.0325V17.8299C65.032 17.6233 65.079 17.4448 65.1731 17.2946C65.2671 17.1443 65.3788 17.0691 65.5081 17.0691H76.4756C76.6049 17.0691 76.7166 17.1443 76.8106 17.2946C76.9047 17.4448 76.9517 17.6233 76.9517 17.8299V21.8029C76.9517 22.0096 76.9047 22.188 76.8106 22.3383C76.7166 22.4886 76.6049 22.5637 76.4756 22.5637H69.6165V24.3389H75.5058C75.6351 24.3389 75.7468 24.414 75.8408 24.5643C75.9349 24.7146 75.9819 24.893 75.9819 25.0997V28.7627C75.9819 28.9694 75.9349 29.1478 75.8408 29.2981C75.7468 29.4484 75.6351 29.5235 75.5058 29.5235H69.6165V31.2987H76.6519Z" fill="#4E9EEE"/>
<path d="M57.5252 17.8299C57.7024 17.3227 57.9563 17.0691 58.2871 17.0691H61.5296C61.6596 17.0691 61.7718 17.1443 61.8663 17.2946C61.9608 17.4448 62.008 17.6233 62.008 17.8299V36.0325C62.008 36.2391 61.9608 36.4176 61.8663 36.5678C61.7718 36.7181 61.6596 36.7933 61.5296 36.7933H58.3225C58.1926 36.7933 58.0804 36.7181 57.9859 36.5678C57.8914 36.4176 57.8441 36.2391 57.8441 36.0325V27.2975L56.5506 31.355C56.5152 31.4865 56.4325 31.6368 56.3026 31.8059C56.1726 31.9749 56.0073 32.0595 55.8065 32.0595H54.6016C54.4008 32.0595 54.2354 31.9749 54.1055 31.8059C53.9755 31.6368 53.8928 31.4865 53.8574 31.355L52.5639 27.2975V36.0325C52.5639 36.2391 52.5167 36.4176 52.4222 36.5678C52.3277 36.7181 52.2155 36.7933 52.0855 36.7933H48.8784C48.7485 36.7933 48.6363 36.7181 48.5418 36.5678C48.4473 36.4176 48.4 36.2391 48.4 36.0325V17.8299C48.4 17.6233 48.4473 17.4448 48.5418 17.2946C48.6363 17.1443 48.7485 17.0691 48.8784 17.0691H52.121C52.4517 17.0691 52.7057 17.3227 52.8829 17.8299L55.204 24.5925L57.5252 17.8299Z" fill="#4E9EEE"/>
</svg>
